<?xml version="1.0" encoding="utf-8"?>
<!-- Generator: Adobe Illustrator 16.0.0, SVG Export Plug-In . SVG Version: 6.00 Build 0)  -->
<!DOCTYPE svg PUBLIC "-//W3C//DTD SVG 1.1//EN" "http://www.w3.org/Graphics/SVG/1.1/DTD/svg11.dtd">
<svg version="1.1" id="Layer_1" xmlns="http://www.w3.org/2000/svg" xmlns:xlink="http://www.w3.org/1999/xlink" x="0px" y="0px"
	 width="272px" height="27px" viewBox="-0.5 0 272 27" enable-background="new -0.5 0 272 27" xml:space="preserve">
<path fill="#95B7CA" d="M77.1,8.4c-2.9,0-4.6,1.5-5.6,2.9V3.9V3.8v-1c0-0.8-0.4-1.2-1.1-1.2H70c-0.8,0-1.1,0.4-1.1,1.2v21.9
	c0,0.8,0.4,1.2,1.1,1.2h0.5c0.8,0,1.1-0.4,1.1-1.2v-8.3c0-3.4,2.1-5.6,5.4-5.6c2.7,0,4.5,2,4.5,5.3v8.7c0,0.8,0.4,1.2,1.1,1.2h0.1
	c0.8,0,1.1-0.2,1.1-1v-9C83.9,11.3,81.4,8.4,77.1,8.4z"/>
<path fill="#95B7CA" d="M93.2,8.4c-4.6,0-6.9,2.8-6.9,4c0,0.3,0.1,0.6,0.3,0.8c0.2,0.2,0.5,0.3,0.8,0.3c0.3,0,0.5-0.1,0.7-0.3
	c1.3-1.7,2.9-2.5,4.9-2.5c3,0,4.6,1.5,4.6,4.4v0.5h-0.2c-8.1,0.2-11.7,2-11.7,5.8c0,2.9,2.2,4.8,5.9,4.8c2.5,0,4.8-1,6.1-2.9v0.3
	c0,0.1,0,0.1,0,0.2v0.9c0,0.8,0.4,1.2,1.1,1.2H99c0.7,0,1-0.3,1.1-0.9v-0.1V15C100,10.8,97.5,8.4,93.2,8.4z M91.7,24
	c-2.2,0-3.5-1-3.5-2.7c0-2.4,2.6-3.5,8.6-3.8h0.9V19C97.6,21.9,95.1,24,91.7,24z"/>
<path fill="#95B7CA" d="M166.7,8.4c-4.6,0-6.9,2.8-6.9,4c0,0.3,0.1,0.6,0.3,0.8c0.2,0.2,0.5,0.3,0.8,0.3c0.3,0,0.5-0.1,0.7-0.3
	c1.3-1.7,2.9-2.5,4.9-2.5c3,0,4.6,1.5,4.6,4.4v0.5h-0.2c-8.1,0.2-11.7,2-11.7,5.8c0,2.9,2.2,4.8,5.9,4.8c2.5,0,4.8-1,6.1-2.9v0.3
	c0,0.1,0,0.1,0,0.2v1c0,0.8,0.4,1.2,1.1,1.2h0.2c0.7,0,1-0.3,1.1-0.9V25V15C173.5,10.8,171,8.4,166.7,8.4z M165.2,24
	c-2.2,0-3.5-1-3.5-2.7c0-2.4,2.6-3.5,8.6-3.8h0.9V19C171.1,21.9,168.6,24,165.2,24z"/>
<path fill="#95B7CA" d="M65.7,19.7c-0.3,0-0.6,0.1-0.7,0.3c-1.2,2.4-3.9,3.9-7,3.9c-5.1,0-8.8-4-8.8-9.6c0-5.6,3.6-9.6,8.7-9.6
	c2.6,0,5.1,1.2,6.5,3.1c0.3,0.3,0.6,0.4,0.9,0.4c0.3,0,0.7-0.2,0.9-0.4c0.2-0.3,0.3-0.6,0.3-0.8c0-1.3-3-4.6-8.6-4.6
	c-6.8,0-11.5,4.9-11.5,11.9s4.7,11.8,11.4,11.8c5.9,0,9.1-3.7,9.1-5.2c0-0.4-0.1-0.7-0.3-0.9C66.4,19.8,66,19.7,65.7,19.7z"/>
<path fill="#95B7CA" d="M119.9,23.5c-0.5,0.3-1.1,0.5-1.8,0.5c-1.7,0-2.4-1-2.4-3.5V11h4c0.4,0,0.7-0.1,1-0.4
	c0.6-0.6,0.6-1.7,0.6-1.8c0-0.1,0-0.1-0.1-0.1h-5.4V6c0-0.8-0.3-1.2-1.1-1.2h-0.2c-0.8,0-1.1,0.4-1.1,1.2v2.8h-3l0,0
	c-2.8,0-4.5,1.8-5.2,3.6V12c0-0.1,0-1.1,0-1.2l0,0v1v-2c0-0.8-0.4-1.2-1.1-1.2h-0.2c-0.7,0-1.1,0.4-1.1,1.2v14.8
	c0,0.8,0.4,1.2,1.1,1.2h0.2c0.8,0,1.1-0.4,1.1-1.2V18c0-4.5,1.9-7.1,5.1-7.1l0,0l0,0c0,0,0,0,0.1,0h3v9.7c0,3.7,1.6,5.4,4.8,5.4
	c1.8,0,2.9-0.7,3.3-1.4c0.2-0.3,0.2-0.7,0-1C121.1,23.3,120.5,23.1,119.9,23.5z"/>
<path fill="#95B7CA" d="M185.2,23.8c-0.3-0.5-0.9-0.7-1.5-0.3c-0.5,0.3-1.1,0.5-1.8,0.5c-1.7,0-2.4-1-2.4-3.5V11h4
	c0.4,0,0.7-0.1,1-0.4c0.6-0.6,0.6-1.6,0.6-1.6c0-0.1,0-0.1-0.1-0.1h-5.4V6c0-0.8-0.3-1.2-1.1-1.2h-0.2c-0.8,0-1.1,0.4-1.1,1.2v2.8
	h-1.4c-0.8,0-1.2,0.3-1.2,1V10c0,0.7,0.3,0.9,1.2,0.9h1.4v9.8c0,3.7,1.6,5.4,4.8,5.4c1.8,0,2.9-0.7,3.3-1.4
	C185.4,24.5,185.4,24.1,185.2,23.8z"/>
<path fill="#95B7CA" d="M132,8.4c-2.6,0-4.5,0.9-6.1,3V3.9V3.8v-1c0-0.8-0.4-1.2-1.1-1.2h-0.3c-0.8,0-1.1,0.4-1.1,1.2v21.9
	c0,0.8,0.4,1.2,1.1,1.2h0.2c0.7,0,1.1-0.4,1.1-1.2v-1.3c1,1.4,3,2.7,6,2.7c4.8,0,8.1-3.7,8.1-8.9C140,12.1,136.6,8.4,132,8.4z
	 M137.5,17.3c0,4-2.3,6.7-5.8,6.7c-3.2,0-5.8-2.5-5.8-5.5v-3.9c1.1-2.5,3.2-3.9,5.9-3.9C135.1,10.6,137.5,13.4,137.5,17.3z"/>
<path fill="#95B7CA" d="M149.9,8.4c-4.9,0-8.5,3.8-8.5,9c0,5.2,3.6,8.8,8.7,8.8c4.7,0,7.2-2.7,7.2-3.8c0-0.3-0.1-0.6-0.3-0.8
	c-0.2-0.2-0.5-0.3-0.8-0.3s-0.5,0.1-0.7,0.3c-1.2,1.4-2.3,2.4-5.4,2.4c-3.5,0-6-2.4-6.2-5.9h12.9c0.7,0,1.1-0.1,1.1-0.9V17
	C157.8,11.7,154.7,8.4,149.9,8.4z M149.9,10.6c3,0,5,2,5.3,5.2H144C144.5,12.7,146.8,10.6,149.9,10.6z"/>
<polygon fill="#5BC3BD" points="24.9,13 12.5,13 12.5,17 20.2,17 "/>
<path id="gauge_3_" fill="#E7EEF1" d="M38.7,3.2c-0.2-0.2-0.6-0.2-0.8,0L16.4,22.6l0,0c-0.8,0.8-0.8,2,0,2.8
	c0.4,0.4,0.9,0.6,1.4,0.6s1-0.2,1.4-0.6L38.7,4C38.9,3.8,38.9,3.4,38.7,3.2"/>
<polygon fill="#B1E2F9" points="30.7,8 6.5,8 6.5,12 25.9,12 "/>
<polygon fill="#4EA3DA" points="36.5,3 9.5,3 9.5,7 31.7,7 "/>
<path fill="#E7EEF1" d="M195.2,26.1v-8h3.7c1.7,0,2.7,1.2,2.7,2.6c0,1.4-1,2.6-2.7,2.6h-2v2.9h-1.7V26.1z M199.9,20.7
	c0-0.7-0.5-1.1-1.2-1.1h-1.8v2.1h1.8C199.4,21.8,199.9,21.4,199.9,20.7z"/>
<path fill="#E7EEF1" d="M203.3,22.9v-4.8h1.7v4.7c0,1.1,0.6,1.9,1.9,1.9c1.2,0,1.9-0.8,1.9-1.9v-4.7h1.7v4.8c0,2-1.2,3.3-3.6,3.3
	C204.5,26.3,203.3,24.9,203.3,22.9z"/>
<path fill="#E7EEF1" d="M212.7,26.1v-8h4.2c1.5,0,2.3,1,2.3,2s-0.6,1.7-1.4,1.8c0.9,0.1,1.5,1,1.5,2c0,1.2-0.8,2.2-2.3,2.2H212.7z
	 M217.5,20.5c0-0.5-0.4-0.8-0.9-0.8h-2.1v1.7h2.1C217.2,21.3,217.5,21,217.5,20.5z M217.7,23.7c0-0.5-0.4-0.9-1-0.9h-2.2v1.8h2.2
	C217.3,24.6,217.7,24.3,217.7,23.7z"/>
<path fill="#E7EEF1" d="M221.2,26.1v-8h1.7v6.5h3.4v1.5H221.2z"/>
<path fill="#E7EEF1" d="M228.1,26.1v-8h1.7v8H228.1z"/>
<path fill="#E7EEF1" d="M231.4,25l0.9-1.3c0.6,0.6,1.4,1.1,2.5,1.1c0.9,0,1.4-0.4,1.4-0.9c0-1.4-4.6-0.4-4.6-3.4
	c0-1.3,1.2-2.4,3-2.4c1.3,0,2.3,0.4,3.1,1.1l-0.9,1.3c-0.6-0.6-1.5-0.9-2.3-0.9c-0.7,0-1.1,0.3-1.1,0.8c0,1.3,4.6,0.4,4.6,3.4
	c0,1.5-1.1,2.6-3.2,2.6C233.3,26.3,232.2,25.8,231.4,25z"/>
<path fill="#E7EEF1" d="M245.3,26.1v-3.4h-3.8v3.4h-1.7v-8h1.7v3.1h3.8v-3.1h1.7v8H245.3z"/>
<path fill="#E7EEF1" d="M249.1,26.1v-8h1.7v8H249.1z"/>
<path fill="#E7EEF1" d="M258.6,26.1l-3.8-5.2v5.2h-1.7v-8h1.8l3.7,5v-5h1.7v8H258.6z"/>
<path fill="#E7EEF1" d="M262,22.1c0-2.5,1.9-4.1,4.3-4.1c1.7,0,2.7,0.8,3.3,1.8l-1.4,0.8c-0.4-0.6-1.1-1-1.9-1
	c-1.5,0-2.5,1.1-2.5,2.6s1.1,2.6,2.5,2.6c0.7,0,1.4-0.3,1.7-0.6v-1h-2.1v-1.5h3.8v3.1c-0.8,0.9-2,1.5-3.4,1.5
	C263.9,26.3,262,24.7,262,22.1z"/>
</svg>
